HIERARCHY
ROOT Hips
{
	OFFSET 0.000000 0.000000 0.000000
	CHANNELS 6 Xposition Yposition Zposition Zrotation Yrotation Xrotation 
	JOINT LHipJoint
	{
		OFFSET 0.000000 0.000000 0.000000
		CHANNELS 3 Zrotation Yrotation Xrotation
		JOINT LeftUpLeg
		{
			OFFSET 1.363060 -1.794630 0.839290
			CHANNELS 3 Zrotation Yrotation Xrotation
			JOINT LeftLeg
			{
				OFFSET 2.448110 -6.726130 0.000000
				CHANNELS 3 Zrotation Yrotation Xrotation
				JOINT LeftFoot
				{
					OFFSET 2.562200 -7.039590 0.000000
					CHANNELS 3 Zrotation Yrotation Xrotation
					JOINT LeftToeBase
					{
						OFFSET 0.157640 -0.433110 2.322550
						CHANNELS 3 Zrotation Yrotation Xrotation
						End Site
						{
							OFFSET 0.000000 0.000000 0.000000
						}
					}
				}
			}
		}
	}
	JOINT RHipJoint
	{
		OFFSET 0.000000 0.000000 0.000000
		CHANNELS 3 Zrotation Yrotation Xrotation
		JOINT RightUpLeg
		{
			OFFSET -1.305520 -1.794630 0.839290
			CHANNELS 3 Zrotation Yrotation Xrotation
			JOINT RightLeg
			{
				OFFSET -2.542530 -6.985550 0.000000
				CHANNELS 3 Zrotation Yrotation Xrotation
				JOINT RightFoot
				{
					OFFSET -2.568260 -7.056230 0.000000
					CHANNELS 3 Zrotation Yrotation Xrotation
					JOINT RightToeBase
					{
						OFFSET -0.164730 -0.452590 2.363150
						CHANNELS 3 Zrotation Yrotation Xrotation
						End Site
						{
							OFFSET 0.000000 0.000000 0.000000
						}
					}
				}
			}
		}
	}
	JOINT LowerBack
	{
		OFFSET 0.000000 0.000000 0.000000
		CHANNELS 3 Zrotation Yrotation Xrotation
		JOINT Spine
		{
			OFFSET 0.028270 2.035590 -0.193380
			CHANNELS 3 Zrotation Yrotation Xrotation
			JOINT Spine1
			{
				OFFSET 0.056720 2.048850 -0.042750
				CHANNELS 3 Zrotation Yrotation Xrotation
				JOINT Neck
				{
					OFFSET 0.000000 0.000000 0.000000
					CHANNELS 3 Zrotation Yrotation Xrotation
					JOINT Neck1
					{
						OFFSET -0.054170 1.746240 0.172020
						CHANNELS 3 Zrotation Yrotation Xrotation
						JOINT Head
						{
							OFFSET 0.104070 1.761360 -0.123970
							CHANNELS 3 Zrotation Yrotation Xrotation
							End Site
							{
								OFFSET 0.000000 0.000000 0.000000
							}
						}
					}
				}
				JOINT LeftShoulder
				{
					OFFSET 0.000000 0.000000 0.000000
					CHANNELS 3 Zrotation Yrotation Xrotation
					JOINT LeftArm
					{
						OFFSET 3.362410 1.200890 -0.311210
						CHANNELS 3 Zrotation Yrotation Xrotation
						JOINT LeftForeArm
						{
							OFFSET 4.983000 -0.000000 -0.000000
							CHANNELS 3 Zrotation Yrotation Xrotation
							JOINT LeftHand
							{
								OFFSET 3.483560 -0.000000 -0.000000
								CHANNELS 3 Zrotation Yrotation Xrotation
								JOINT LeftFingerBase
								{
									OFFSET 0.000000 0.000000 0.000000
									CHANNELS 3 Zrotation Yrotation Xrotation
									JOINT LeftHandIndex1
									{
										OFFSET 0.715260 -0.000000 -0.000000
										CHANNELS 3 Zrotation Yrotation Xrotation
										End Site
										{
											OFFSET 0.000000 0.000000 0.000000
										}
									}
								}
								JOINT LThumb
								{
									OFFSET 0.000000 0.000000 0.000000
									CHANNELS 3 Zrotation Yrotation Xrotation
									End Site
									{
										OFFSET 0.000000 0.000000 0.000000
									}
								}
							}
						}
					}
				}
				JOINT RightShoulder
				{
					OFFSET 0.000000 0.000000 0.000000
					CHANNELS 3 Zrotation Yrotation Xrotation
					JOINT RightArm
					{
						OFFSET -3.136600 1.374050 -0.404650
						CHANNELS 3 Zrotation Yrotation Xrotation
						JOINT RightForeArm
						{
							OFFSET -5.241900 -0.000000 -0.000000
							CHANNELS 3 Zrotation Yrotation Xrotation
							JOINT RightHand
							{
								OFFSET -3.444170 -0.000000 -0.000000
								CHANNELS 3 Zrotation Yrotation Xrotation
								JOINT RightFingerBase
								{
									OFFSET 0.000000 0.000000 0.000000
									CHANNELS 3 Zrotation Yrotation Xrotation
									JOINT RightHandIndex1
									{
										OFFSET -0.622530 -0.000000 -0.000000
										CHANNELS 3 Zrotation Yrotation Xrotation
										End Site
										{
											OFFSET 0.000000 0.000000 0.000000
										}
									}
								}
								JOINT RThumb
								{
									OFFSET 0.000000 0.000000 0.000000
									CHANNELS 3 Zrotation Yrotation Xrotation
									End Site
									{
										OFFSET 0.000000 0.000000 0.000000
									}
								}
							}
						}
					}
				}
			}
		}
	}
}
MOTION
Frames: 4
Frame Time: 0.008333
-7.682222 15.137688 2.202553 -11.064743 -79.752571 15.790387 -1.954353 5.719968 -0.458925 1.938598 -9.866365 -48.515309 5.968421 17.068578 55.730804 4.751993 5.460283 -3.241358 -1.962173 5.988019 -11.439251 2.067505 -8.060128 1.511081 9.402238 14.129518 -42.527616 -6.747500 -2.939180 51.237527 -0.855380 -7.660425 -7.788474 -3.907343 -2.319700 -16.295825 -1.939867 0.372548 7.211489 3.336466 -1.056868 -4.825822 1.408308 -2.859692 5.150089 -0.988426 0.539354 -8.235211 15.783123 -0.692694 12.499314 -23.379150 21.831013 15.334393 7.969119 -2.969764 3.588119 -102.606853 -53.430274 47.486316 154.411255 -79.814438 -158.045868 -10.338247 23.521861 -5.435622 -0.000001 -0.000002 -0.000000 0.000000 0.000000 0.000000 0.000000 -0.000000 0.000000 -7.546000 1.929359 3.963153 73.134223 21.768843 9.346483 -28.217796 84.422494 -12.505165 1.207231 2.937134 0.462730 0.000000 0.000002 -0.000000 -0.000000 0.000000 0.000000 0.000000 -0.000000 0.000000 
-7.688724 15.120270 2.011502 -13.987816 -79.257648 18.501834 -2.381964 5.583223 -0.468300 2.763093 -9.085088 -49.104095 6.304246 17.669160 58.226964 5.136607 5.798008 -3.249911 -1.974345 5.973958 -11.732514 2.915634 -8.051873 1.401609 9.197354 15.178927 -42.744510 -6.125603 -3.642176 52.677311 -2.199111 -9.556410 -7.587923 -3.467120 -4.105263 -17.796884 -2.021386 0.430666 7.365536 3.592942 -1.017262 -4.689136 1.703251 -2.947124 5.572289 -1.008892 0.517626 -8.309482 16.123124 -0.678406 12.388629 -23.879212 22.361063 15.312851 7.546556 -3.019349 3.347525 -102.976350 -53.297835 47.659472 153.439920 -80.953535 -158.244181 -9.958228 24.022883 -5.479222 -0.000001 -0.000002 -0.000000 0.000000 0.000000 -0.000000 0.000000 0.000000 0.000000 -7.130488 1.982137 4.160301 72.358686 22.274339 8.423447 -17.212443 82.448544 -4.763535 -0.245833 1.045117 0.140831 0.000000 0.000002 -0.000000 0.000000 0.000000 -0.000000 -0.000000 -0.000000 0.000000 
-7.693078 15.111261 1.844550 -16.178174 -78.930021 20.386233 -2.180986 5.655695 -0.384942 2.564300 -8.841071 -49.109081 6.172950 18.231802 60.482187 5.092694 5.891033 -3.687392 -1.924501 5.667419 -12.685333 2.680800 -8.311681 1.397270 10.074758 16.365435 -42.350926 -5.384375 -4.136056 53.321771 -3.310072 -10.958956 -7.176268 -2.992293 -5.332192 -18.335348 -2.126871 0.445348 7.375641 3.691608 -0.948474 -4.510301 1.626663 -2.863947 5.907178 -0.641298 0.553261 -8.359349 16.357221 -0.719649 12.585525 -24.040282 22.714531 14.816166 7.986983 -3.153198 3.467470 -103.548807 -52.498222 47.765368 150.867158 -81.925142 -156.188764 -9.013176 23.823645 -5.236114 -0.000001 -0.000002 -0.000000 0.000000 0.000000 -0.000000 -0.000000 -0.000000 0.000000 -6.784036 1.578176 4.508586 72.544673 22.119709 6.870464 -9.138177 81.250071 -0.088511 -0.539921 -1.301343 -0.184900 0.000000 0.000002 -0.000000 -0.000000 -0.000000 -0.000000 -0.000000 0.000000 -0.000000 
-7.687072 15.106757 1.685571 -17.221129 -78.566933 21.022047 -2.445081 5.544268 -0.427861 2.602946 -8.494666 -48.816442 6.396908 18.935348 62.607124 5.183957 5.670858 -3.816666 -1.863231 5.497181 -12.625317 2.256438 -8.467216 1.257315 11.133687 17.028655 -41.713173 -4.987042 -4.723189 53.684099 -3.769846 -11.832025 -6.619738 -2.702858 -5.910791 -18.372742 -2.256284 0.490975 7.670183 3.749563 -0.934054 -4.413767 1.581878 -2.852272 5.806183 -0.383275 0.538003 -8.060295 16.601450 -0.804467 12.814421 -24.584127 23.051831 14.035637 8.228007 -3.452708 3.717456 -103.899078 -51.522602 47.384354 148.840353 -83.011689 -155.147719 -8.972378 24.170281 -5.308267 -0.000001 -0.000002 -0.000000 0.000000 -0.000000 -0.000000 -0.000000 0.000000 -0.000000 -6.523063 1.423925 4.754444 72.710538 21.516364 5.424576 -4.139024 79.855507 2.707220 -1.758700 -2.809149 -0.377879 0.000000 0.000002 -0.000000 -0.000000 -0.000000 0.000000 0.000000 0.000000 -0.000000 
